HIERARCHY
ROOT Hips
{
	OFFSET 0.000000 0.000000 0.000000
	CHANNELS 6 Xposition Yposition Zposition Zrotation Yrotation Xrotation 
	JOINT LHipJoint
	{
		OFFSET 0.000000 0.000000 0.000000
		CHANNELS 3 Zrotation Yrotation Xrotation
		JOINT LeftUpLeg
		{
			OFFSET 1.363060 -1.794630 0.839290
			CHANNELS 3 Zrotation Yrotation Xrotation
			JOINT LeftLeg
			{
				OFFSET 2.448110 -6.726130 0.000000
				CHANNELS 3 Zrotation Yrotation Xrotation
				JOINT LeftFoot
				{
					OFFSET 2.562200 -7.039590 0.000000
					CHANNELS 3 Zrotation Yrotation Xrotation
					JOINT LeftToeBase
					{
						OFFSET 0.157640 -0.433110 2.322550
						CHANNELS 3 Zrotation Yrotation Xrotation
						End Site
						{
							OFFSET 0.000000 0.000000 0.000000
						}
					}
				}
			}
		}
	}
	JOINT RHipJoint
	{
		OFFSET 0.000000 0.000000 0.000000
		CHANNELS 3 Zrotation Yrotation Xrotation
		JOINT RightUpLeg
		{
			OFFSET -1.305520 -1.794630 0.839290
			CHANNELS 3 Zrotation Yrotation Xrotation
			JOINT RightLeg
			{
				OFFSET -2.542530 -6.985550 0.000000
				CHANNELS 3 Zrotation Yrotation Xrotation
				JOINT RightFoot
				{
					OFFSET -2.568260 -7.056230 0.000000
					CHANNELS 3 Zrotation Yrotation Xrotation
					JOINT RightToeBase
					{
						OFFSET -0.164730 -0.452590 2.363150
						CHANNELS 3 Zrotation Yrotation Xrotation
						End Site
						{
							OFFSET 0.000000 0.000000 0.000000
						}
					}
				}
			}
		}
	}
	JOINT LowerBack
	{
		OFFSET 0.000000 0.000000 0.000000
		CHANNELS 3 Zrotation Yrotation Xrotation
		JOINT Spine
		{
			OFFSET 0.028270 2.035590 -0.193380
			CHANNELS 3 Zrotation Yrotation Xrotation
			JOINT Spine1
			{
				OFFSET 0.056720 2.048850 -0.042750
				CHANNELS 3 Zrotation Yrotation Xrotation
				JOINT Neck
				{
					OFFSET 0.000000 0.000000 0.000000
					CHANNELS 3 Zrotation Yrotation Xrotation
					JOINT Neck1
					{
						OFFSET -0.054170 1.746240 0.172020
						CHANNELS 3 Zrotation Yrotation Xrotation
						JOINT Head
						{
							OFFSET 0.104070 1.761360 -0.123970
							CHANNELS 3 Zrotation Yrotation Xrotation
							End Site
							{
								OFFSET 0.000000 0.000000 0.000000
							}
						}
					}
				}
				JOINT LeftShoulder
				{
					OFFSET 0.000000 0.000000 0.000000
					CHANNELS 3 Zrotation Yrotation Xrotation
					JOINT LeftArm
					{
						OFFSET 3.362410 1.200890 -0.311210
						CHANNELS 3 Zrotation Yrotation Xrotation
						JOINT LeftForeArm
						{
							OFFSET 4.983000 -0.000000 -0.000000
							CHANNELS 3 Zrotation Yrotation Xrotation
							JOINT LeftHand
							{
								OFFSET 3.483560 -0.000000 -0.000000
								CHANNELS 3 Zrotation Yrotation Xrotation
								JOINT LeftFingerBase
								{
									OFFSET 0.000000 0.000000 0.000000
									CHANNELS 3 Zrotation Yrotation Xrotation
									JOINT LeftHandIndex1
									{
										OFFSET 0.715260 -0.000000 -0.000000
										CHANNELS 3 Zrotation Yrotation Xrotation
										End Site
										{
											OFFSET 0.000000 0.000000 0.000000
										}
									}
								}
								JOINT LThumb
								{
									OFFSET 0.000000 0.000000 0.000000
									CHANNELS 3 Zrotation Yrotation Xrotation
									End Site
									{
										OFFSET 0.000000 0.000000 0.000000
									}
								}
							}
						}
					}
				}
				JOINT RightShoulder
				{
					OFFSET 0.000000 0.000000 0.000000
					CHANNELS 3 Zrotation Yrotation Xrotation
					JOINT RightArm
					{
						OFFSET -3.136600 1.374050 -0.404650
						CHANNELS 3 Zrotation Yrotation Xrotation
						JOINT RightForeArm
						{
							OFFSET -5.241900 -0.000000 -0.000000
							CHANNELS 3 Zrotation Yrotation Xrotation
							JOINT RightHand
							{
								OFFSET -3.444170 -0.000000 -0.000000
								CHANNELS 3 Zrotation Yrotation Xrotation
								JOINT RightFingerBase
								{
									OFFSET 0.000000 0.000000 0.000000
									CHANNELS 3 Zrotation Yrotation Xrotation
									JOINT RightHandIndex1
									{
										OFFSET -0.622530 -0.000000 -0.000000
										CHANNELS 3 Zrotation Yrotation Xrotation
										End Site
										{
											OFFSET 0.000000 0.000000 0.000000
										}
									}
								}
								JOINT RThumb
								{
									OFFSET 0.000000 0.000000 0.000000
									CHANNELS 3 Zrotation Yrotation Xrotation
									End Site
									{
										OFFSET 0.000000 0.000000 0.000000
									}
								}
							}
						}
					}
				}
			}
		}
	}
}
MOTION
Frames: 10
Frame Time: 0.008333
7.788522 17.099849 -49.247207 -4.133666 -15.040927 10.556552 -2.174548 -3.715271 -7.013324 -4.290962 3.547987 -35.613843 -2.461220 9.039256 14.983935 -3.234196 18.510675 26.251585 1.266900 -7.134500 -20.114500 4.004025 -4.775834 9.283962 11.094927 7.490992 9.294544 4.717656 0.799142 2.884631 -0.469434 -9.166577 30.148575 0.000000 0.000000 0.000000 3.844789 7.235535 -1.055131 0.367931 8.997606 -3.804556 -4.644191 5.511533 -1.918240 -1.394642 -2.722910 -7.260908 5.706177 -4.036228 9.859196 1.100600 -1.750700 4.598600 1.536120 -6.874978 0.472166 -86.577169 19.982722 -23.851785 -2.527272 -0.164325 -0.179378 -1.996016 1.358864 37.902792 16.821912 5.034989 1.787700 -7.125000 0.000000 0.000000 -6.201900 35.358600 1.476100 -3.933123 9.314143 0.450075 80.187962 5.752498 32.463148 -45.091363 46.185207 -25.302452 2.265466 1.539073 -8.525497 -23.718712 -25.930334 12.447000 7.125000 0.000000 0.000000 4.470300 -59.173600 -1.549900
7.802059 17.125581 -49.072681 -3.990288 -15.075468 10.639953 -2.171978 -3.667471 -6.890073 -3.591586 2.055021 -34.904137 -2.490435 9.181384 15.488793 -2.830379 17.141509 25.305582 0.827205 -1.864565 -5.352590 3.918377 -4.861515 9.298725 10.778437 7.571695 9.377796 4.700445 0.798865 2.905674 -0.473867 -9.190285 30.229759 0.000000 0.000000 0.000000 3.677392 7.203304 -1.451542 0.361957 8.931520 -3.794030 -4.589159 5.490607 -1.751685 -1.366036 -2.722208 -7.268926 5.736534 -4.044314 9.865419 1.102525 -1.750604 4.574782 1.550899 -6.815927 0.469890 -86.737676 20.269704 -24.036177 -2.422772 -0.306021 -0.170229 -2.011787 1.136494 37.642429 15.626693 6.041839 2.005430 -7.125000 0.000000 0.000000 -7.459538 36.513508 1.529077 -3.953657 9.261816 0.452884 80.361720 5.482318 32.393524 -45.062165 46.211718 -25.272104 2.247619 1.536297 -8.583866 -23.543195 -25.819729 12.301927 7.125000 0.000000 0.000000 4.642704 -59.018230 -1.591906
7.815596 17.151312 -48.898155 -3.846910 -15.110009 10.723353 -2.169408 -3.619672 -6.766822 -2.892210 0.562055 -34.194431 -2.519650 9.323513 15.993650 -2.426562 15.772343 24.359580 0.387511 3.405370 9.409320 3.832730 -4.947197 9.313488 10.461947 7.652398 9.461049 4.683234 0.798589 2.926717 -0.478300 -9.213993 30.310942 0.000000 0.000000 0.000000 3.509996 7.171072 -1.847953 0.355984 8.865435 -3.783505 -4.534127 5.469681 -1.585130 -1.337431 -2.721506 -7.276944 5.766891 -4.052400 9.871642 1.104449 -1.750508 4.550964 1.565677 -6.756876 0.467613 -86.898184 20.556687 -24.220569 -2.318271 -0.447718 -0.161079 -2.027558 0.914124 37.382066 14.431474 7.048688 2.223160 -7.125000 0.000000 0.000000 -8.717176 37.668416 1.582054 -3.974190 9.209489 0.455692 80.535478 5.212139 32.323901 -45.032966 46.238228 -25.241756 2.229772 1.533521 -8.642236 -23.367677 -25.709123 12.156854 7.125000 0.000000 0.000000 4.815108 -58.862859 -1.633913
7.820419 17.194419 -48.749821 -3.622922 -14.613507 10.591252 -2.332952 -3.616421 -6.600797 -2.468992 -0.587031 -33.678176 -2.489586 9.437510 16.303924 -2.428305 15.574245 23.939124 0.602533 4.828481 13.447623 4.116408 -4.818744 8.969199 10.056147 6.496827 7.877081 3.941622 -0.995703 5.764931 4.655528 -19.257032 25.010990 -0.261762 -2.181471 6.065684 3.186211 7.013127 -1.778209 0.351841 8.679210 -3.803596 -4.535399 5.363111 -1.691166 -1.244440 -2.788757 -7.215092 5.827630 -4.159779 9.780310 1.114934 -1.799065 4.497342 1.565215 -6.766613 0.464744 -86.809823 20.787944 -24.125387 -2.211540 -0.625057 -0.150387 -1.954150 0.788366 37.193841 13.377496 7.129575 2.097433 -7.125000 0.000000 0.000000 -9.735582 37.732233 1.763295 -4.011890 9.198308 0.448256 80.913349 4.795127 31.962147 -45.063663 46.280485 -25.270805 2.215624 1.516096 -8.786346 -23.343034 -25.553317 12.065800 7.125000 0.000000 0.000000 4.785712 -58.673338 -1.602473
7.824503 17.239002 -48.603711 -3.392089 -14.071917 10.440853 -2.510599 -3.616952 -6.431140 -2.069221 -1.706919 -33.178346 -2.454489 9.549118 16.597677 -2.464482 15.475577 23.563289 0.873144 5.924975 16.575430 4.431445 -4.672111 8.594425 9.642763 5.236289 6.151557 3.138504 -2.942316 8.842339 10.225623 -30.150770 19.254149 -0.545750 -4.548162 12.646378 2.849149 6.844507 -1.668887 0.347855 8.482785 -3.826286 -4.541451 5.249270 -1.820346 -1.145983 -2.861778 -7.147307 5.890948 -4.275588 9.680695 1.126145 -1.851753 4.441189 1.563458 -6.782190 0.461825 -86.700333 21.014470 -24.006468 -2.104619 -0.805422 -0.139565 -1.873170 0.670812 37.011741 12.335511 7.131842 1.942544 -7.125000 0.000000 0.000000 -10.733677 37.703411 1.955427 -4.051047 9.190619 0.439951 81.308551 4.365650 31.575591 -45.099444 46.324080 -25.304897 2.201791 1.497426 -8.937736 -23.331200 -25.393673 11.979334 7.125000 0.000000 0.000000 4.739183 -58.480918 -1.564797
7.831087 17.295474 -48.451657 -2.917286 -13.642275 10.472743 -2.758446 -3.621756 -6.280579 -2.033570 -2.463242 -32.783407 -2.462716 9.634509 16.885346 -2.400208 15.160510 23.170481 1.123421 6.688787 18.813192 4.881422 -4.581900 8.511536 8.871804 4.928771 4.542309 2.592158 -4.136704 10.873906 7.730950 -30.249531 27.504433 -3.211757 -9.161762 28.037554 2.229386 6.695277 -1.831064 0.325447 8.319937 -3.851836 -4.474472 5.160475 -1.876363 -1.236321 -2.866867 -7.210407 6.046079 -4.283894 9.647320 1.253269 -1.851923 4.469577 1.524185 -6.801079 0.459156 -86.534694 20.973803 -23.862282 -2.154806 -0.759726 -0.122437 -1.726050 0.731712 36.890115 11.936935 5.940962 1.563337 -7.125000 0.000000 0.000000 -10.915915 36.339601 2.359782 -4.110354 9.193576 0.427104 81.700616 3.855729 31.196704 -45.121831 46.383276 -25.349404 2.206318 1.494423 -9.224371 -23.674567 -25.454348 12.178875 7.125000 0.000000 0.000000 4.356603 -58.600399 -1.448628
7.838135 17.354153 -48.298499 -2.397209 -13.233408 10.538460 -3.019319 -3.627354 -6.133562 -2.065487 -3.152099 -32.407931 -2.478981 9.715035 17.171886 -2.317294 14.805287 22.774524 1.369925 7.390864 20.885790 5.356439 -4.502159 8.482811 8.034491 4.798102 2.954638 2.093461 -5.191503 12.711400 3.739723 -28.345100 38.353978 -6.319788 -14.192314 45.063665 1.557163 6.549645 -2.043623 0.299621 8.163319 -3.877917 -4.393940 5.076329 -1.918802 -1.361695 -2.859350 -7.297795 6.218248 -4.272252 9.626237 1.401903 -1.842348 4.513652 1.477951 -6.820583 0.456534 -86.358637 20.883555 -23.713408 -2.234147 -0.672080 -0.104138 -1.566656 0.825728 36.779712 11.657755 4.528673 1.142504 -7.125000 0.000000 0.000000 -10.946759 34.728062 2.803518 -4.173400 9.198509 0.413413 82.092100 3.330881 30.819242 -45.141733 46.445368 -25.395844 2.214251 1.494327 -9.536103 -24.083848 -25.555907 12.431490 7.125000 0.000000 0.000000 3.911664 -58.777759 -1.317894
7.847794 17.377390 -48.143543 -1.819744 -12.639998 10.553344 -3.187344 -3.816691 -6.146712 -3.047289 -2.656073 -32.662273 -2.488162 9.739329 17.471589 -2.253581 14.798119 23.347275 1.346170 7.339051 20.726613 5.357546 -4.013403 8.536605 7.781722 5.231713 1.925217 2.373368 -5.254342 14.812493 -0.063071 -18.860182 43.798746 -4.687860 -11.590983 36.223704 0.882479 6.328871 -2.264255 0.275947 7.904401 -3.891703 -4.272784 4.909756 -1.878220 -1.475165 -2.806956 -7.392407 6.345845 -4.200372 9.590348 1.509188 -1.803979 4.525915 1.438547 -6.870880 0.464767 -86.294570 20.717541 -23.693478 -2.292108 -0.608771 -0.092249 -1.339597 1.041103 36.704395 11.870917 2.154976 0.490184 -7.125000 0.000000 0.000000 -10.495406 32.022708 3.332420 -4.225002 9.161437 0.405761 82.421574 2.840150 30.548898 -45.050703 46.463132 -25.351902 2.226908 1.507771 -9.877885 -24.541375 -25.749771 12.761575 7.125000 0.000000 0.000000 3.436827 -59.075631 -1.179023
7.858255 17.389752 -47.988036 -1.224671 -11.989966 10.552631 -3.326882 -4.062403 -6.209005 -4.320532 -1.796502 -33.109855 -2.495169 9.746371 17.775329 -2.195760 14.897740 24.217244 1.239494 7.055929 19.882686 5.213249 -3.399155 8.615718 7.708302 5.838456 1.067077 2.892165 -5.012829 16.994464 -3.808051 -7.049431 47.585230 -1.601626 -6.648052 19.447562 0.207040 6.085041 -2.487364 0.252932 7.614095 -3.901716 -4.139164 4.717893 -1.812167 -1.584983 -2.740793 -7.489236 6.459767 -4.110010 9.549916 1.603787 -1.756777 4.528417 1.401239 -6.930626 0.476330 -86.264864 20.528282 -23.713109 -2.343510 -0.552929 -0.082326 -1.091778 1.293713 36.639844 12.235139 -0.513698 -0.233162 -7.125000 0.000000 0.000000 -9.896107 28.981751 3.887451 -4.273093 9.111478 0.399961 82.732022 2.359886 30.311421 -44.925639 46.467296 -25.280230 2.241013 1.525369 -10.228888 -25.013705 -25.971955 13.115428 7.125000 0.000000 0.000000 2.952816 -59.410478 -1.037654
7.866217 17.386513 -47.837216 -0.954771 -11.596423 10.431833 -3.435649 -4.183876 -6.171852 -5.441850 -0.705352 -33.570781 -2.470835 9.782150 18.046614 -2.069107 15.082406 25.493935 0.823099 5.128914 14.411508 5.138528 -3.070574 8.451433 7.760403 5.997612 0.504743 2.782701 -5.418522 18.903068 -4.923609 -3.447462 48.930432 -0.425439 -3.415091 9.504655 -0.147952 5.957845 -2.499990 0.241973 7.460895 -3.893964 -4.043972 4.615481 -1.691937 -1.643260 -2.850561 -7.667657 6.498904 -4.255710 9.641036 1.627186 -1.822223 4.650675 1.390623 -6.961364 0.478587 -86.243598 20.299902 -23.727105 -2.334446 -0.607039 -0.131036 -0.587009 1.864963 36.537897 13.567782 -6.512821 -2.285525 -7.125000 0.000000 0.000000 -8.799769 22.017173 4.606564 -4.307401 9.082892 0.387113 83.032824 1.941954 29.990969 -44.737301 46.436445 -25.159553 2.245127 1.542909 -10.607220 -25.311854 -26.106288 13.338453 7.125000 0.000000 0.000000 2.642804 -59.616777 -0.942794
